<svg viewBox="0 0 512 512" width="128" height="128" xmlns="http://www.w3.org/2000/svg" class="ani-av" data-type="ISFP">
<defs><clipPath id="clip-ISFP-circle-7vga2"><circle cx="256" cy="256" r="256"/></clipPath></defs>
<g clip-path="url(#clip-ISFP-circle-7vga2)">
  <rect width="512" height="512" fill="#FCF0DF"/>
  

  <!-- 身体（肩部露出下缘）-->
  <path d="M256 336c-72 0-130 44-130 100v76h260v-76c0-56-58-100-130-100z"
        fill="#D9A87F" stroke="#2B2233" stroke-width="10" stroke-linejoin="round"/>

  
  

  <!-- 翅膀在头后 -->
  

  <!-- 耳朵 -->
  <g fill="#BC8A62" stroke="#2B2233" stroke-width="10" stroke-linejoin="round"><ellipse cx="140" cy="180" rx="26" ry="42" transform="rotate(-22 140 180)"/>
      <ellipse cx="372" cy="180" rx="26" ry="42" transform="rotate(22 372 180)"/></g>
      <g fill="none" stroke="#2B2233" stroke-width="10" stroke-linejoin="round"><path d="M186 122l-14-46M172 92l-24-10M326 122l14-46M340 92l24-10"/></g>

  <!-- 头 -->
  <ellipse cx="256" cy="236" rx="132" ry="122" fill="#D9A87F" stroke="#2B2233" stroke-width="10" stroke-linejoin="round"/>

  <!-- 面部浅色区 -->
  <ellipse cx="256" cy="262" rx="96" ry="82" fill="#fff" opacity=".26"/>

  
  <g fill="#FF7FA8" opacity=".42"><ellipse cx="168" cy="286" rx="26" ry="17"/><ellipse cx="344" cy="286" rx="26" ry="17"/></g>

  
  <g><ellipse cx="212" cy="250" rx="17" ry="20" fill="#2B2233"/><ellipse cx="300" cy="250" rx="17" ry="20" fill="#2B2233"/>
      <circle cx="218" cy="243" r="5.5" fill="#fff"/><circle cx="306" cy="243" r="5.5" fill="#fff"/>
      <g stroke="#2B2233" stroke-width="8" stroke-linecap="round">
        <path d="M188 232l-14-10"/><path d="M324 232l14-10"/></g></g>
  <path d="M244 300h24" stroke="#2B2233" stroke-width="10" stroke-linecap="round"/>

  <!-- 前景配饰 -->
  <g stroke="#2B2233" stroke-width="10" stroke-linejoin="round"><g fill="#FF9EC4"><circle cx="368" cy="180" r="16"/><circle cx="396" cy="180" r="16"/>
      <circle cx="382" cy="158" r="16"/><circle cx="382" cy="202" r="16"/></g>
      <circle cx="382" cy="180" r="10" fill="#FFD84D"/></g>
</g>
<circle cx="256" cy="256" r="248" fill="none" stroke="#2B2233" stroke-width="16"/>
</svg>