<svg viewBox="0 0 512 512" width="512" height="512" xmlns="http://www.w3.org/2000/svg" class="ani-av" data-type="ESTP">
<defs><clipPath id="clip-ESTP-squircle-i1mze"><rect x="0" y="0" width="512" height="512" rx="112"/></clipPath></defs>
<g clip-path="url(#clip-ESTP-squircle-i1mze)">
  <rect width="512" height="512" fill="#FDE6CE"/>
  <g fill="#F09340" opacity=".26">
      <path d="M96 96l-24 46h20l-14 40 40-52h-22l18-34z"/>
      <path d="M420 150l-18 34h15l-11 30 30-39h-16l13-25z"/></g>

  <!-- 身体（肩部露出下缘）-->
  <path d="M256 336c-72 0-130 44-130 100v76h260v-76c0-56-58-100-130-100z"
        fill="#F0B860" stroke="#2B2233" stroke-width="10" stroke-linejoin="round"/>

  
  

  <!-- 翅膀在头后 -->
  

  <!-- 耳朵 -->
  <g fill="#F0B860" stroke="#2B2233" stroke-width="10" stroke-linejoin="round"><path d="M148 146l-8-72 62 34z"/><path d="M364 146l8-72-62 34z"/></g>
      <g fill="#2B2233" opacity=".55"><path d="M158 136l-4-40 34 20z"/><path d="M354 136l4-40-34 20z"/></g>

  <!-- 头 -->
  <ellipse cx="256" cy="236" rx="132" ry="122" fill="#F0B860" stroke="#2B2233" stroke-width="10" stroke-linejoin="round"/>

  <!-- 面部浅色区 -->
  <ellipse cx="256" cy="262" rx="96" ry="82" fill="#fff" opacity=".26"/>

  
  

  <g stroke="#2B2233" stroke-width="11" stroke-linecap="round" fill="none"><path d="M186 208c14-12 34-10 46 2"/><path d="M280 212c12-14 32-16 46-4"/></g>
  <g><circle cx="212" cy="248" r="21" fill="#2B2233"/><circle cx="300" cy="248" r="21" fill="#2B2233"/>
      <circle cx="219" cy="240" r="7" fill="#fff"/><circle cx="307" cy="240" r="7" fill="#fff"/></g>
  <path d="M222 288c16 30 52 30 68 0z" fill="#2B2233"/>
      <path d="M230 290h52l-6 10h-40z" fill="#fff"/>

  <!-- 前景配饰 -->
  <g stroke="#2B2233" stroke-width="10" stroke-linejoin="round"><rect x="164" y="150" width="80" height="42" rx="16" fill="#2B2233"/>
      <rect x="268" y="150" width="80" height="42" rx="16" fill="#2B2233"/>
      <path d="M244 168h24" stroke-width="8"/></g>
</g>
<rect x="8" y="8" width="496" height="496" rx="106" fill="none" stroke="#2B2233" stroke-width="16"/>
</svg>