<svg viewBox="0 0 512 512" width="128" height="128" xmlns="http://www.w3.org/2000/svg" class="ani-av" data-type="ENTJ">
<defs><clipPath id="clip-ENTJ-squircle-tcw9g"><rect x="0" y="0" width="512" height="512" rx="112"/></clipPath></defs>
<g clip-path="url(#clip-ENTJ-squircle-tcw9g)">
  <rect width="512" height="512" fill="#DED5F5"/>
  

  <!-- 身体（肩部露出下缘）-->
  <path d="M256 336c-72 0-130 44-130 100v76h260v-76c0-56-58-100-130-100z"
        fill="#8E76D9" stroke="#2B2233" stroke-width="10" stroke-linejoin="round"/>

  
  <path d="M150 372c30-24 70-34 106-34s76 10 106 34v42H150z" fill="#FF8A6B" stroke="#2B2233" stroke-width="10" stroke-linejoin="round"/>

  <!-- 翅膀在头后 -->
  

  <!-- 耳朵 -->
  

  <!-- 头 -->
  <ellipse cx="256" cy="236" rx="132" ry="122" fill="#8E76D9" stroke="#2B2233" stroke-width="10" stroke-linejoin="round"/>

  <!-- 面部浅色区 -->
  <ellipse cx="256" cy="262" rx="96" ry="82" fill="#fff" opacity=".26"/>

  
  

  <g stroke="#2B2233" stroke-width="11" stroke-linecap="round" fill="none"><path d="M186 202l46 14"/><path d="M326 202l-46 14"/></g>
  <g fill="#2B2233"><path d="M186 238l46 14-46 10z"/><path d="M326 238l-46 14 46 10z"/></g>
  <path d="M236 288l20 34 20-34z" fill="#FF8A6B" stroke="#2B2233" stroke-width="9" stroke-linejoin="round"/>

  <!-- 前景配饰 -->
  
</g>
<rect x="8" y="8" width="496" height="496" rx="106" fill="none" stroke="#2B2233" stroke-width="16"/>
</svg>