<svg viewBox="0 0 512 512" width="128" height="128" xmlns="http://www.w3.org/2000/svg" class="ani-av" data-type="ISTJ">
<defs><clipPath id="clip-ISTJ-squircle-q4a80"><rect x="0" y="0" width="512" height="512" rx="112"/></clipPath></defs>
<g clip-path="url(#clip-ISTJ-squircle-q4a80)">
  <rect width="512" height="512" fill="#D8E8F7"/>
  

  <!-- 身体（肩部露出下缘）-->
  <path d="M256 336c-72 0-130 44-130 100v76h260v-76c0-56-58-100-130-100z"
        fill="#8FC98F" stroke="#2B2233" stroke-width="10" stroke-linejoin="round"/>

  <g stroke="#2B2233" stroke-width="10" stroke-linejoin="round"><path d="M148 400c0-44 48-72 108-72s108 28 108 72z" fill="#8B6F47"/>
      <g fill="none" stroke="#2B2233" stroke-width="7">
        <path d="M256 328v72M196 344l16 56M316 344l-16 56M164 372h184"/></g></g>
  

  <!-- 翅膀在头后 -->
  

  <!-- 耳朵 -->
  

  <!-- 头 -->
  <ellipse cx="256" cy="236" rx="132" ry="122" fill="#8FC98F" stroke="#2B2233" stroke-width="10" stroke-linejoin="round"/>

  <!-- 面部浅色区 -->
  <ellipse cx="256" cy="262" rx="96" ry="82" fill="#fff" opacity=".26"/>

  
  

  <g stroke="#2B2233" stroke-width="11" stroke-linecap="round" fill="none"><path d="M186 214c14-10 34-8 46 4"/><path d="M280 218c12-12 32-14 46-4"/></g>
  <g stroke="#2B2233" stroke-width="11" stroke-linecap="round"><path d="M190 248h42"/><path d="M280 248h42"/></g>
  <path d="M238 302h36" stroke="#2B2233" stroke-width="10" stroke-linecap="round"/>

  <!-- 前景配饰 -->
  
</g>
<rect x="8" y="8" width="496" height="496" rx="106" fill="none" stroke="#2B2233" stroke-width="16"/>
</svg>